<svg preserveAspectRatio="none" width="100%" height="100%" overflow="visible" style="display: block;" viewBox="0 0 60 60" fill="none" xmlns="http://www.w3.org/2000/svg">
<g id="Call icon">
<circle id="Ellipse 1456" cx="30" cy="30" r="30" fill="var(--fill-0, #FF804B)"/>
<g id="Group 47387">
<path id="Vector" d="M29.8555 20.3447C32.1226 19.6987 34.6176 20.2338 36.3528 21.969C38.088 23.7042 38.6231 26.1992 37.9771 28.4663M31.8859 23.1873C32.6956 23.026 33.6283 23.3053 34.3224 23.9994C35.0165 24.6935 35.2958 25.6262 35.1345 26.4359" stroke="var(--stroke-0, white)" stroke-width="1.57242" stroke-linecap="round" stroke-linejoin="round"/>
<path id="Vector_2" d="M33.3191 39.7968C34.2432 39.9596 35.1933 39.9596 36.1174 39.7968C37.6027 39.535 38.7991 38.5378 39.2112 37.2181L39.2986 36.9382C39.3894 36.6472 39.4355 36.3462 39.4355 36.0438C39.4355 34.7103 38.2429 33.6292 36.7717 33.6292H32.6647C31.1936 33.6292 30.001 34.7103 30.001 36.0438C30.001 36.3462 30.047 36.6472 30.1379 36.9382L30.2253 37.2181C30.6374 38.5378 31.8338 39.535 33.3191 39.7968ZM33.3191 39.7968C26.9001 38.6074 21.8779 33.5852 20.6885 27.1662M20.6885 27.1662C20.5257 26.2421 20.5257 25.2921 20.6885 24.368C20.9503 22.8826 21.9475 21.6862 23.2672 21.2742L23.5471 21.1867C23.8381 21.0959 24.1391 21.0498 24.4415 21.0498C25.7751 21.0498 26.8561 22.2424 26.8561 23.7136L26.8561 27.8206C26.8561 29.2917 25.7751 30.4844 24.4415 30.4844C24.1391 30.4843 23.8381 30.4383 23.5471 30.3474L23.2672 30.26C21.9475 29.8479 20.9503 28.6515 20.6885 27.1662Z" stroke="var(--stroke-0, white)" stroke-width="1.57242"/>
</g>
</g>
</svg>
