<svg preserveAspectRatio="none" width="100%" height="100%" overflow="visible" style="display: block;" viewBox="0 0 30.9058 23.5724" fill="none" xmlns="http://www.w3.org/2000/svg">
<path id="Vector" d="M11.3956 9.27873C11.1819 9.754 10.6291 9.97711 10.1564 9.79235C9.37492 9.48692 8.52272 9.31903 7.63066 9.31903C3.85057 9.31903 0.786212 12.3338 0.786212 16.0526C0.786212 19.7715 3.85057 22.7862 7.63066 22.7862C7.63517 22.7862 7.63969 22.7862 7.64421 22.7862H20.336C20.338 22.7862 20.3399 22.7862 20.3418 22.7862C25.7419 22.7862 30.1195 18.4794 30.1195 13.1668C30.1195 7.85412 25.7419 3.54736 20.3418 3.54736C16.3481 3.54736 12.9137 5.90287 11.3956 9.27873ZM7.63066 9.31903C6.6687 9.31903 5.75309 9.51426 4.92254 9.86666C4.36697 8.95271 4.04547 7.86998 4.04547 6.70928C4.04547 3.43806 6.59911 0.786212 9.74918 0.786212C12.3198 0.786212 14.4933 2.55222 15.2059 4.97967C13.5343 5.9967 12.1976 7.49534 11.3956 9.27873" stroke="var(--stroke-0, white)" stroke-width="1.57242"/>
</svg>
