<svg preserveAspectRatio="none" width="100%" height="100%" overflow="visible" style="display: block;" viewBox="0 0 88.7972 85.6986" fill="none" xmlns="http://www.w3.org/2000/svg">
<g id="Group 395">
<path id="Arrow 7" d="M88.7972 1.5C88.7972 0.671573 88.1256 3.04224e-07 87.2972 5.99252e-07L73.7972 -2.43685e-07C72.9688 -2.43685e-07 72.2972 0.671572 72.2972 1.5C72.2972 2.32843 72.9688 3 73.7972 3H85.7972V15C85.7972 15.8284 86.4688 16.5 87.2972 16.5C88.1256 16.5 88.7972 15.8284 88.7972 15L88.7972 1.5ZM67.4982 21.299L68.5589 22.3596L88.3579 2.56066L87.2972 1.5L86.2365 0.43934L66.4375 20.2383L67.4982 21.299Z" fill="var(--stroke-0, white)"/>
<path id="Arrow 9" d="M2.26818e-06 84.1986C2.04299e-06 85.027 0.671575 85.6986 1.5 85.6986L15 85.6986C15.8284 85.6986 16.5 85.027 16.5 84.1986C16.5 83.3701 15.8284 82.6986 15 82.6986L3 82.6986L3 70.6986C3 69.8701 2.32843 69.1986 1.5 69.1986C0.671573 69.1986 2.17449e-07 69.8701 2.8728e-07 70.6986L2.26818e-06 84.1986ZM21.299 64.3996L20.2383 63.3389L0.439341 83.1379L1.5 84.1986L2.56066 85.2592L22.3596 65.4602L21.299 64.3996Z" fill="var(--stroke-0, white)"/>
<path id="Arrow 8" d="M5.99252e-07 1.5C3.04224e-07 0.671573 0.671573 3.04224e-07 1.5 5.99252e-07L15 -2.43685e-07C15.8284 -2.43685e-07 16.5 0.671572 16.5 1.5C16.5 2.32843 15.8284 3 15 3H3V15C3 15.8284 2.32843 16.5 1.5 16.5C0.671572 16.5 -2.43685e-07 15.8284 -2.43685e-07 15L5.99252e-07 1.5ZM21.299 21.299L20.2383 22.3596L0.43934 2.56066L1.5 1.5L2.56066 0.43934L22.3596 20.2383L21.299 21.299Z" fill="var(--stroke-0, white)"/>
<path id="Arrow 10" d="M88.7972 84.1986C88.7972 85.027 88.1256 85.6986 87.2972 85.6986L73.7972 85.6986C72.9688 85.6986 72.2972 85.027 72.2972 84.1986C72.2972 83.3701 72.9688 82.6986 73.7972 82.6986L85.7972 82.6986L85.7972 70.6986C85.7972 69.8701 86.4688 69.1986 87.2972 69.1986C88.1256 69.1986 88.7972 69.8701 88.7972 70.6986L88.7972 84.1986ZM67.4982 64.3996L68.5589 63.3389L88.3579 83.1379L87.2972 84.1986L86.2365 85.2592L66.4375 65.4602L67.4982 64.3996Z" fill="var(--stroke-0, white)"/>
</g>
</svg>
