<svg preserveAspectRatio="none" width="100%" height="100%" overflow="visible" style="display: block;" viewBox="0 0 29.2193 22.8276" fill="none" xmlns="http://www.w3.org/2000/svg">
<path id="Vector" d="M24.7515 1.9118C22.8601 1.01868 20.8377 0.369595 18.7234 0C18.4637 0.473808 18.1603 1.11109 17.9511 1.61805C15.7035 1.27691 13.4766 1.27691 11.2703 1.61805C11.0612 1.11109 10.751 0.473808 10.4889 0C8.37231 0.369595 6.34759 1.02106 4.45618 1.91653C0.641172 7.73478 -0.393013 13.4085 0.124081 19.0017C2.65439 20.9087 5.10657 22.0672 7.51737 22.8252C8.1126 21.9985 8.64348 21.1195 9.10081 20.1933C8.2298 19.8593 7.39556 19.4471 6.6073 18.9685C6.81642 18.8121 7.02098 18.6487 7.2186 18.4805C12.0264 20.75 17.2502 20.75 22.0006 18.4805C22.2005 18.6487 22.4051 18.8121 22.6119 18.9685C21.8213 19.4494 20.9847 19.8616 20.1137 20.1957C20.5711 21.1195 21.0997 22.0009 21.6972 22.8276C24.1103 22.0695 26.5648 20.9111 29.0951 19.0017C29.7019 12.5177 28.0586 6.89614 24.7515 1.9118ZM9.75577 15.5619C8.31255 15.5619 7.12896 14.2021 7.12896 12.5461C7.12896 10.8902 8.28728 9.52806 9.75577 9.52806C11.2244 9.52806 12.4079 10.8878 12.3827 12.5461C12.385 14.2021 11.2244 15.5619 9.75577 15.5619ZM19.4634 15.5619C18.0202 15.5619 16.8365 14.2021 16.8365 12.5461C16.8365 10.8902 17.9948 9.52806 19.4634 9.52806C20.9319 9.52806 22.1155 10.8878 22.0902 12.5461C22.0902 14.2021 20.9319 15.5619 19.4634 15.5619Z" fill="var(--fill-0, white)"/>
</svg>
